<svg width="40" height="32" viewBox="0 0 40 32" fill="none" xmlns="http://www.w3.org/2000/svg">
<path d="M33.5347 26.2014C33.5347 26.6736 33.2153 27.0139 32.7569 27.0139C32.2847 27.0139 31.9792 26.6528 31.9792 26.2014C31.9792 25.75 32.2847 25.3889 32.7569 25.3889C33.2153 25.3889 33.5347 25.75 33.5347 26.2014ZM11.9514 25.3889C11.4583 25.3889 11.1736 25.75 11.1736 26.2014C11.1736 26.6528 11.4583 27.0139 11.9514 27.0139C12.4028 27.0139 12.7083 26.6736 12.7083 26.2014C12.7014 25.75 12.4028 25.3889 11.9514 25.3889ZM20.1111 25.3681C19.7361 25.3681 19.5069 25.6111 19.4514 25.9722H20.7778C20.7153 25.5764 20.4722 25.3681 20.1111 25.3681ZM27.5972 25.3889C27.125 25.3889 26.8403 25.75 26.8403 26.2014C26.8403 26.6528 27.125 27.0139 27.5972 27.0139C28.0694 27.0139 28.375 26.6736 28.375 26.2014C28.375 25.75 28.0694 25.3889 27.5972 25.3889ZM34.9514 27.2014C34.9514 27.2222 34.9722 27.2361 34.9722 27.2778C34.9722 27.2986 34.9514 27.3125 34.9514 27.3542C34.9306 27.375 34.9306 27.3889 34.9167 27.4097C34.8958 27.4306 34.8819 27.4444 34.8403 27.4444C34.8194 27.4653 34.8056 27.4653 34.7639 27.4653C34.7431 27.4653 34.7292 27.4653 34.6875 27.4444C34.6667 27.4444 34.6528 27.4236 34.6319 27.4097C34.6111 27.3889 34.5972 27.375 34.5972 27.3542C34.5764 27.3194 34.5764 27.2986 34.5764 27.2778C34.5764 27.2431 34.5764 27.2222 34.5972 27.2014C34.5972 27.1667 34.6181 27.1458 34.6319 27.125C34.6528 27.1042 34.6667 27.1042 34.6875 27.0903C34.7222 27.0694 34.7431 27.0694 34.7639 27.0694C34.7986 27.0694 34.8194 27.0694 34.8403 27.0903C34.875 27.1111 34.8958 27.1111 34.9167 27.125C34.9375 27.1389 34.9306 27.1667 34.9514 27.2014ZM34.7986 27.2986C34.8333 27.2986 34.8333 27.2778 34.8542 27.2778C34.875 27.2569 34.875 27.2431 34.875 27.2222C34.875 27.2014 34.875 27.1875 34.8542 27.1667C34.8333 27.1667 34.8194 27.1458 34.7778 27.1458H34.6667V27.3889H34.7222V27.2917H34.7431L34.8194 27.3889H34.875L34.7986 27.2986V27.2986ZM40 3.33333V27.7778C40 29.6181 38.5069 31.1111 36.6667 31.1111H3.33333C1.49306 31.1111 0 29.6181 0 27.7778V3.33333C0 1.49306 1.49306 0 3.33333 0H36.6667C38.5069 0 40 1.49306 40 3.33333ZM4.44444 13.0278C4.44444 18.3403 8.75694 22.6458 14.0625 22.6458C15.9514 22.6458 17.8056 22.0764 19.375 21.0417C14.3125 16.9236 14.3472 9.15278 19.375 5.03472C17.8056 3.99306 15.9514 3.43056 14.0625 3.43056C8.75694 3.42361 4.44444 7.73611 4.44444 13.0278ZM20 20.5833C24.8958 16.7639 24.875 9.31944 20 5.47917C15.125 9.31944 15.1042 16.7708 20 20.5833ZM10.1181 25.8819C10.1181 25.2778 9.72222 24.8819 9.09722 24.8611C8.77778 24.8611 8.4375 24.9583 8.20833 25.3125C8.04167 25.0278 7.75694 24.8611 7.36111 24.8611C7.09722 24.8611 6.83333 24.9583 6.625 25.2361V24.9306H6.05556V27.4792H6.625C6.625 26.1667 6.45139 25.3819 7.25 25.3819C7.95833 25.3819 7.81944 26.0903 7.81944 27.4792H8.36806C8.36806 26.2083 8.19444 25.3819 8.99306 25.3819C9.70139 25.3819 9.5625 26.0764 9.5625 27.4792H10.1319V25.8819H10.1181ZM13.2361 24.9306H12.6875V25.2361C12.5 25.0069 12.2361 24.8611 11.875 24.8611C11.1597 24.8611 10.6111 25.4306 10.6111 26.2014C10.6111 26.9792 11.1597 27.5417 11.875 27.5417C12.2361 27.5417 12.5 27.4097 12.6875 27.1667V27.4861H13.2361V24.9306ZM16.0486 26.7083C16.0486 25.6667 14.4583 26.1389 14.4583 25.6528C14.4583 25.2569 15.2847 25.3194 15.7431 25.5764L15.9722 25.125C15.3194 24.7014 13.875 24.7083 13.875 25.6944C13.875 26.6875 15.4653 26.2708 15.4653 26.7361C15.4653 27.1736 14.5278 27.1389 14.0278 26.7917L13.7847 27.2292C14.5625 27.7569 16.0486 27.6458 16.0486 26.7083V26.7083ZM18.5069 27.3542L18.3542 26.8819C18.0903 27.0278 17.5069 27.1875 17.5069 26.5972V25.4444H18.4167V24.9306H17.5069V24.1528H16.9375V24.9306H16.4097V25.4375H16.9375V26.5972C16.9375 27.8194 18.1389 27.5972 18.5069 27.3542V27.3542ZM19.4306 26.4236H21.3403C21.3403 25.2986 20.8264 24.8542 20.1319 24.8542C19.3958 24.8542 18.8681 25.4028 18.8681 26.1944C18.8681 27.6181 20.4375 27.8542 21.2153 27.1806L20.9514 26.7639C20.4097 27.2083 19.5903 27.1667 19.4306 26.4236V26.4236ZM23.5347 24.9306C23.2153 24.7917 22.7292 24.8056 22.4792 25.2361V24.9306H21.9097V27.4792H22.4792V26.0417C22.4792 25.2361 23.1389 25.3403 23.3681 25.4583L23.5347 24.9306V24.9306ZM24.2708 26.2014C24.2708 25.4097 25.0764 25.1528 25.7083 25.6181L25.9722 25.1667C25.1667 24.5347 23.7014 24.8819 23.7014 26.2083C23.7014 27.5833 25.2569 27.8611 25.9722 27.25L25.7083 26.7986C25.0694 27.25 24.2708 26.9792 24.2708 26.2014ZM28.9028 24.9306H28.3333V25.2361C27.7569 24.4722 26.2569 24.9028 26.2569 26.2014C26.2569 27.5347 27.8125 27.9167 28.3333 27.1667V27.4861H28.9028V24.9306V24.9306ZM31.2431 24.9306C31.0764 24.8472 30.4792 24.7292 30.1875 25.2361V24.9306H29.6389V27.4792H30.1875V26.0417C30.1875 25.2778 30.8125 25.3264 31.0764 25.4583L31.2431 24.9306V24.9306ZM34.0417 23.8958H33.4931V25.2361C32.9236 24.4792 31.4167 24.8819 31.4167 26.2014C31.4167 27.5486 32.9792 27.9097 33.4931 27.1667V27.4861H34.0417V23.8958ZM34.5694 18.6806V19H34.625V18.6806H34.7569V18.625H34.4375V18.6806H34.5694V18.6806ZM35.0278 27.2778C35.0278 27.2431 35.0278 27.2014 35.0069 27.1667C34.9861 27.1458 34.9722 27.1111 34.9514 27.0903C34.9306 27.0694 34.8958 27.0556 34.875 27.0347C34.8403 27.0347 34.7986 27.0139 34.7639 27.0139C34.7431 27.0139 34.7083 27.0347 34.6667 27.0347C34.6319 27.0556 34.6111 27.0694 34.5903 27.0903C34.5556 27.1111 34.5347 27.1458 34.5347 27.1667C34.5139 27.2014 34.5139 27.2431 34.5139 27.2778C34.5139 27.2986 34.5139 27.3333 34.5347 27.375C34.5347 27.3958 34.5556 27.4306 34.5903 27.4514C34.6111 27.4722 34.625 27.4861 34.6667 27.5069C34.7014 27.5278 34.7431 27.5278 34.7639 27.5278C34.7986 27.5278 34.8403 27.5278 34.875 27.5069C34.8958 27.4861 34.9306 27.4722 34.9514 27.4514C34.9722 27.4306 34.9861 27.3958 35.0069 27.375C35.0278 27.3333 35.0278 27.2986 35.0278 27.2778ZM35.25 18.6181H35.1528L35.0417 18.8611L34.9306 18.6181H34.8333V18.9931H34.8889V18.7083L35 18.9514H35.0764L35.1736 18.7083V18.9931H35.25V18.6181V18.6181ZM35.5556 13.0278C35.5556 7.73611 31.2431 3.42361 25.9375 3.42361C24.0486 3.42361 22.1944 3.99306 20.625 5.02778C25.6319 9.14583 25.7083 16.9375 20.625 21.0347C22.1944 22.0764 24.0625 22.6389 25.9375 22.6389C31.2431 22.6458 35.5556 18.3403 35.5556 13.0278V13.0278Z" fill="#0B80ED"/>
</svg>
        
