<svg width="107" height="107" viewBox="0 0 107 107" fill="none" xmlns="http://www.w3.org/2000/svg">
<path d="M53.5 10.0312C44.9027 10.0313 36.4985 12.5806 29.3501 17.3571C22.2017 22.1335 16.6302 28.9224 13.3401 36.8652C10.0501 44.8081 9.18926 53.5482 10.8665 61.9803C12.5438 70.4124 16.6838 78.1578 22.763 84.2371C28.8422 90.3163 36.5876 94.4563 45.0197 96.1335C53.4518 97.8108 62.1919 96.9499 70.1348 93.6599C78.0777 90.3698 84.8666 84.7983 89.643 77.6499C94.4194 70.5015 96.9688 62.0973 96.9688 53.5C96.9467 41.9782 92.3599 30.9345 84.2127 22.7874C76.0655 14.6402 65.0219 10.0533 53.5 10.0312ZM50.1563 33.4375C50.1563 32.5507 50.5086 31.7002 51.1356 31.0731C51.7627 30.446 52.6132 30.0938 53.5 30.0938C54.3868 30.0938 55.2373 30.446 55.8644 31.0731C56.4915 31.7002 56.8438 32.5507 56.8438 33.4375V56.8438C56.8438 57.7306 56.4915 58.5811 55.8644 59.2081C55.2373 59.8352 54.3868 60.1875 53.5 60.1875C52.6132 60.1875 51.7627 59.8352 51.1356 59.2081C50.5086 58.5811 50.1563 57.7306 50.1563 56.8438V33.4375ZM53.5 76.9063C52.508 76.9063 51.5383 76.6121 50.7135 76.061C49.8887 75.5098 49.2458 74.7265 48.8662 73.81C48.4866 72.8935 48.3872 71.8851 48.5808 70.9121C48.7743 69.9392 49.252 69.0455 49.9534 68.344C50.6549 67.6426 51.5486 67.1649 52.5215 66.9714C53.4945 66.7778 54.5029 66.8772 55.4194 67.2568C56.3359 67.6364 57.1192 68.2793 57.6704 69.1041C58.2215 69.9289 58.5156 70.8986 58.5156 71.8906C58.5156 73.2209 57.9872 74.4966 57.0466 75.4372C56.106 76.3778 54.8302 76.9063 53.5 76.9063Z" fill="#FB5353"/>
</svg>
