<svg width="40" height="46" viewBox="0 0 40 46" fill="none" xmlns="http://www.w3.org/2000/svg">
<path d="M11.5732 15.7143H15.0634C15.1964 13.3009 15.6473 11.1295 16.3321 9.42768C13.858 10.6098 12.0446 12.9268 11.5732 15.7143ZM11.5732 18.5714C12.0455 21.3589 13.858 23.6759 16.3321 24.858C15.6464 23.1563 15.1964 20.9848 15.0634 18.5714H11.5732V18.5714ZM20 25.5973C20.6866 24.9321 21.8545 22.5241 22.092 18.5714H17.9071C18.1455 22.5232 19.3134 24.9321 20 25.5973ZM17.908 15.7143H22.0929C21.8554 11.7625 20.6875 9.35357 20.0009 8.68839C19.3134 9.35357 18.1455 11.7625 17.908 15.7143ZM23.6679 24.858C26.142 23.6759 27.9554 21.3589 28.4268 18.5714H24.9366C24.8036 20.9848 24.3536 23.1563 23.6679 24.858ZM37.1429 0H5.71429C2.55804 0 0 2.55804 0 5.71429V40C0 43.1563 2.55804 45.7143 5.71429 45.7143H37.1429C38.7205 45.7143 40 44.4348 40 42.8571V2.85714C40 1.27946 38.7205 0 37.1429 0ZM30 37.1429H10C9.21429 37.1429 8.57143 36.5 8.57143 35.7143C8.57143 34.9286 9.21429 34.2857 10 34.2857H30C30.7857 34.2857 31.4286 34.9286 31.4286 35.7143C31.4286 36.5 30.7857 37.1429 30 37.1429ZM20 28.5714C13.6884 28.5714 8.57143 23.4545 8.57143 17.1429C8.57143 10.8313 13.6884 5.71429 20 5.71429C26.3116 5.71429 31.4286 10.8313 31.4286 17.1429C31.4286 23.4545 26.3116 28.5714 20 28.5714ZM23.6679 9.42768C24.3536 11.1295 24.8036 13.3009 24.9366 15.7143H28.4268C27.9554 12.9268 26.142 10.6098 23.6679 9.42768Z" fill="#0B80ED"/>
</svg>

