<svg width="52" height="35" viewBox="0 0 52 35" fill="none" xmlns="http://www.w3.org/2000/svg">
<path d="M0 5C0 2.23858 2.23858 0 5 0H38C43.5229 0 48 4.47715 48 10V15C48 23.2843 41.2843 30 33 30H5C2.23858 30 0 27.7614 0 25V5Z" fill="#0B80ED"/>
<path d="M0 5C0 2.23858 2.23858 0 5 0H38C43.5229 0 48 4.47715 48 10V15C48 23.2843 41.2843 30 33 30H5C2.23858 30 0 27.7614 0 25V5Z" stroke="#0B80ED"/>
<path d="M4.5 10C4.5 7.51472 6.51472 5.5 9 5.5H42C47.2467 5.5 51.5 9.75329 51.5 15V20C51.5 28.0081 45.0081 34.5 37 34.5H9C6.51472 34.5 4.5 32.4853 4.5 30V10Z" fill="#0B80ED" stroke="white"/>
<rect x="36.5" y="14.5" width="15" height="5" fill="white" stroke="#0B80ED"/>
<circle cx="40.25" cy="17.25" r="1.25" fill="#0B80ED"/>
</svg>
